# xmcd CD database file
#
# Track frame offsets:
#	150
#	16875
#	32673
#	49618
#	65310
#	78390
#	92958
#	110188
#	125018
#	146125
#	159630
#	170413
#	189103
#	205813
#	221605
#	237370
#	250458
#	265033
#	281863
#	296698
#	310203
#	328808
#
# Disc length: 4440 seconds
#
# Revision: 0
# Processed by: cddbd v1.5.1PL0 Copyright (c) Steve Scherf et al.
# Submitted via: CDex 1.51
#
DISCID=4f115616
DTITLE=地球戦隊ファイブマン - 地球戦隊ファイブマン COMPLETE SONG COLLECTION
DYEAR=1997
DGENRE=Anime
TTITLE0=地球戦隊ファイブマン
TTITLE1=熱いビートでファイブマン
TTITLE2=おれたちウラヒーロー
TTITLE3=ジャンケンジャンプ！ファイブマン
TTITLE4=五つの心でファイブロボ
TTITLE5=カンフー・ダンス
TTITLE6=スーパー・アーサー
TTITLE7=ブラザー・ブラッド
TTITLE8=ハンド・イン・ハンド
TTITLE9=ファイブマン、愛のテーマ
TTITLE10=地球はほがらかじま
TTITLE11=兄弟ロボだぜ！スターファイブ
TTITLE12=地球戦隊ファイブマン（オリジナル・カラオケ）
TTITLE13=熱いビートでファイブマン（オリジナル・カラオケ）
TTITLE14=ジャンケンジャンプ！ファイブマン（オリジナル・カラオケ）
TTITLE15=五つの心でファイブロボ（オリジナル・カラオケ）
TTITLE16=カンフー・ダンス（オリジナル・カラオケ）
TTITLE17=スーパー・アーサー（オリジナル・カラオケ）
TTITLE18=ブラザー・ブラッド（オリジナル・カラオケ）
TTITLE19=ファイブマン、愛のテーマ（オリジナル・カラオケ）
TTITLE20=兄弟ロボだぜ！スターファイブ（オリジナル・カラオケ）
TTITLE21=ニュータウン小学校高歌［ピアノ伴奏］
EXTD=YEAR: 1997
EXTT0=
EXTT1=
EXTT2=
EXTT3=
EXTT4=
EXTT5=
EXTT6=
EXTT7=
EXTT8=
EXTT9=
EXTT10=
EXTT11=
EXTT12=
EXTT13=
EXTT14=
EXTT15=
EXTT16=
EXTT17=
EXTT18=
EXTT19=
EXTT20=
EXTT21=
PLAYORDER=
